<?xml version="1.0" standalone="no"?>
<!DOCTYPE svg PUBLIC "-//W3C//DTD SVG 1.1//EN" "http://www.w3.org/Graphics/SVG/1.1/DTD/svg11.dtd">
<svg width="153" height="102" viewBox="0 -102 153 102" xmlns="http://www.w3.org/2000/svg" version="1.1">
<title>OpenSCAD Model</title>
<path d="
M 149.313,-0.380859 L 150.936,-1.46484 L 152.02,-3.08691 L 152.4,-5 L 152.4,-96.5996 L 152.02,-98.5137
 L 150.936,-100.136 L 149.313,-101.22 L 147.4,-101.6 L 5,-101.6 L 3.08691,-101.22 L 1.46484,-100.136
 L 0.380859,-98.5137 L 0,-96.5996 L 0,-5 L 0.380859,-3.08691 L 1.46484,-1.46484 L 3.08691,-0.380859
 L 5,-0 L 147.4,-0 z
M 107.769,-81.0479 L 106.625,-82.4111 L 106.625,-84.1895 L 107.769,-85.5518 L 109.52,-85.8604 L 111.06,-84.9717
 L 111.668,-83.2998 L 111.06,-81.6289 L 109.52,-80.7393 z
M 94.7861,-82.5654 L 94.7861,-84.0352 L 96.1836,-84.4893 L 97.0469,-83.2998 L 96.1836,-82.1113 z
M 16.5947,-57.8066 L 16.5947,-59.6729 L 18.3701,-60.25 L 19.4668,-58.7402 L 18.3701,-57.2305 z
M 48.9355,-56.5254 L 48.9355,-57.9951 L 50.334,-58.4492 L 51.1973,-57.2598 L 50.334,-56.0713 z
M 35.0146,-41.9268 L 35.0146,-43.793 L 36.79,-44.3701 L 37.8867,-42.8604 L 36.79,-41.3506 z
M 107.769,-16.0479 L 106.625,-17.4111 L 106.625,-19.1895 L 107.769,-20.5518 L 109.52,-20.8604 L 111.06,-19.9717
 L 111.668,-18.2998 L 111.06,-16.6289 L 109.52,-15.7393 z
" stroke="black" fill="lightgray" stroke-width="0.5"/></svg>
