<?xml version="1.0" standalone="no"?>
<!DOCTYPE svg PUBLIC "-//W3C//DTD SVG 1.1//EN" "http://www.w3.org/Graphics/SVG/1.1/DTD/svg11.dtd">
<svg width="110" height="180" viewBox="0 -82 110 180" xmlns="http://www.w3.org/2000/svg" version="1.1">
<title>OpenSCAD Model</title>
<path d="
M 106.913,97.084 L 108.535,96 L 109.619,94.3779 L 110,92.4639 L 110,-77 L 109.619,-78.9131
 L 108.535,-80.5352 L 106.913,-81.6191 L 105,-82 L 5,-82 L 3.08691,-81.6191 L 1.46484,-80.5352
 L 0.380859,-78.9131 L 0,-77 L 0,92.4639 L 0.380859,94.3779 L 1.46484,96 L 3.08691,97.084
 L 5,97.4639 L 105,97.4639 z
M 14,-5 L 14,-77 L 96,-77 L 96,-5 z
M 5.5293,-69.2285 L 4.79688,-70.9971 L 5.5293,-72.7666 L 7.29883,-73.499 L 9.06836,-72.7666 L 9.80078,-70.9971
 L 9.06836,-69.2285 L 7.29883,-68.4951 z
M 100.932,-69.2285 L 100.199,-70.9971 L 100.932,-72.7666 L 102.701,-73.499 L 104.471,-72.7666 L 105.203,-70.9971
 L 104.471,-69.2285 L 102.701,-68.4951 z
M 6.35352,-36.8564 L 4.64941,-37.6768 L 3.46973,-39.1562 L 3.04883,-41 L 3.46973,-42.8438 L 4.64941,-44.3232
 L 6.35352,-45.1436 L 8.24414,-45.1436 L 9.94824,-44.3232 L 11.1279,-42.8438 L 11.5488,-41 L 11.1279,-39.1562
 L 9.94824,-37.6768 L 8.24414,-36.8564 z
M 101.756,-36.8564 L 100.052,-37.6768 L 98.8721,-39.1562 L 98.4512,-41 L 98.8721,-42.8438 L 100.052,-44.3232
 L 101.756,-45.1436 L 103.646,-45.1436 L 105.351,-44.3232 L 106.53,-42.8438 L 106.951,-41 L 106.53,-39.1562
 L 105.351,-37.6768 L 103.646,-36.8564 z
M 100.932,-9.2334 L 100.199,-11.0029 L 100.932,-12.7715 L 102.701,-13.5049 L 104.471,-12.7715 L 105.203,-11.0029
 L 104.471,-9.2334 L 102.701,-8.50098 z
M 5.5293,-9.2334 L 4.79688,-11.0029 L 5.5293,-12.7715 L 7.29883,-13.5049 L 9.06836,-12.7715 L 9.80078,-11.0029
 L 9.06836,-9.2334 L 7.29883,-8.50098 z
M 10,35.4639 L 8.11914,35.1328 L 6.46484,34.1777 L 5.2373,32.7139 L 4.58398,30.9189 L 4.58398,29.0088
 L 5.2373,27.2139 L 6.46484,25.751 L 8.11914,24.7959 L 10,24.4639 L 35,24.4639 L 36.8809,24.7959
 L 38.5352,25.751 L 39.7627,27.2139 L 40.416,29.0088 L 40.416,30.9189 L 39.7627,32.7139 L 38.5352,34.1777
 L 36.8809,35.1328 L 35,35.4639 z
M 75,35.4639 L 73.1191,35.1328 L 71.4648,34.1777 L 70.2373,32.7139 L 69.584,30.9189 L 69.584,29.0088
 L 70.2373,27.2139 L 71.4648,25.751 L 73.1191,24.7959 L 75,24.4639 L 100,24.4639 L 101.881,24.7959
 L 103.535,25.751 L 104.763,27.2139 L 105.416,29.0088 L 105.416,30.9189 L 104.763,32.7139 L 103.535,34.1777
 L 101.881,35.1328 L 100,35.4639 z
M 75,80.4639 L 73.1191,80.1328 L 71.4648,79.1777 L 70.2373,77.7139 L 69.584,75.9189 L 69.584,74.0088
 L 70.2373,72.2139 L 71.4648,70.751 L 73.1191,69.7959 L 75,69.4639 L 100,69.4639 L 101.881,69.7959
 L 103.535,70.751 L 104.763,72.2139 L 105.416,74.0088 L 105.416,75.9189 L 104.763,77.7139 L 103.535,79.1777
 L 101.881,80.1328 L 100,80.4639 z
M 10,80.4639 L 8.11914,80.1328 L 6.46484,79.1777 L 5.2373,77.7139 L 4.58398,75.9189 L 4.58398,74.0088
 L 5.2373,72.2139 L 6.46484,70.751 L 8.11914,69.7959 L 10,69.4639 L 35,69.4639 L 36.8809,69.7959
 L 38.5352,70.751 L 39.7627,72.2139 L 40.416,74.0088 L 40.416,75.9189 L 39.7627,77.7139 L 38.5352,79.1777
 L 36.8809,80.1328 L 35,80.4639 z
" stroke="black" fill="lightgray" stroke-width="0.5"/></svg>
