  0
SECTION
  2
HEADER
  9
$ACADVER
  1
AC1009
  9
$MEASUREMENT
 70
     1
  0
ENDSEC
  0
SECTION
  2
ENTITIES
  0
LWPOLYLINE
  8
0
 62
7
 90
5
 70
1
 10
23.368000
 20
4.093438
 10
22.869562
 20
4.093438
 10
22.869562
 20
3.096563
 10
23.866437
 20
3.096563
 10
23.866437
 20
4.093438
  0
LWPOLYLINE
  8
0
 62
7
 90
5
 70
1
 10
23.368000
 20
5.793437
 10
22.869562
 20
5.793437
 10
22.869562
 20
4.796563
 10
23.866437
 20
4.796563
 10
23.866437
 20
5.793437
  0
LWPOLYLINE
  8
0
 62
7
 90
5
 70
1
 10
20.925562
 20
1.397000
 10
20.925562
 20
0.898563
 10
21.922438
 20
0.898563
 10
21.922438
 20
1.895437
 10
20.925562
 20
1.895437
  0
LWPOLYLINE
  8
0
 62
7
 90
5
 70
1
 10
19.225562
 20
1.397000
 10
19.225562
 20
0.898563
 10
20.222438
 20
0.898563
 10
20.222438
 20
1.895437
 10
19.225562
 20
1.895437
  0
LWPOLYLINE
  8
0
 62
7
 90
5
 70
1
 10
30.607000
 20
9.622563
 10
31.105438
 20
9.622563
 10
31.105438
 20
10.619438
 10
30.108562
 20
10.619438
 10
30.108562
 20
9.622563
  0
LWPOLYLINE
  8
0
 62
7
 90
5
 70
1
 10
30.607000
 20
7.922562
 10
31.105438
 20
7.922562
 10
31.105438
 20
8.919437
 10
30.108562
 20
8.919437
 10
30.108562
 20
7.922562
  0
LWPOLYLINE
  8
0
 62
7
 90
5
 70
1
 10
17.526000
 20
4.601437
 10
17.027562
 20
4.601437
 10
17.027562
 20
3.604562
 10
18.024438
 20
3.604562
 10
18.024438
 20
4.601437
  0
LWPOLYLINE
  8
0
 62
7
 90
5
 70
1
 10
17.526000
 20
6.301437
 10
17.027562
 20
6.301437
 10
17.027562
 20
5.304563
 10
18.024438
 20
5.304563
 10
18.024438
 20
6.301437
  0
LWPOLYLINE
  8
0
 62
7
 90
5
 70
1
 10
12.348437
 20
6.731000
 10
12.348437
 20
7.229437
 10
11.351563
 20
7.229437
 10
11.351563
 20
6.232563
 10
12.348437
 20
6.232563
  0
LWPOLYLINE
  8
0
 62
7
 90
5
 70
1
 10
14.048438
 20
6.731000
 10
14.048438
 20
7.229437
 10
13.051563
 20
7.229437
 10
13.051563
 20
6.232563
 10
14.048438
 20
6.232563
  0
LWPOLYLINE
  8
0
 62
7
 90
5
 70
1
 10
12.192000
 20
3.585438
 10
11.693563
 20
3.585438
 10
11.693563
 20
2.588563
 10
12.690437
 20
2.588563
 10
12.690437
 20
3.585438
  0
LWPOLYLINE
  8
0
 62
7
 90
5
 70
1
 10
12.192000
 20
5.285437
 10
11.693563
 20
5.285437
 10
11.693563
 20
4.288563
 10
12.690437
 20
4.288563
 10
12.690437
 20
5.285437
  0
LWPOLYLINE
  8
0
 62
7
 90
5
 70
1
 10
15.367000
 20
4.601437
 10
14.868563
 20
4.601437
 10
14.868563
 20
3.604562
 10
15.865438
 20
3.604562
 10
15.865438
 20
4.601437
  0
LWPOLYLINE
  8
0
 62
7
 90
5
 70
1
 10
15.367000
 20
6.301437
 10
14.868563
 20
6.301437
 10
14.868563
 20
5.304563
 10
15.865438
 20
5.304563
 10
15.865438
 20
6.301437
  0
LWPOLYLINE
  8
0
 62
7
 90
5
 70
1
 10
26.289000
 20
9.622563
 10
26.787438
 20
9.622563
 10
26.787438
 20
10.619438
 10
25.790563
 20
10.619438
 10
25.790563
 20
9.622563
  0
LWPOLYLINE
  8
0
 62
7
 90
5
 70
1
 10
26.289000
 20
7.922562
 10
26.787438
 20
7.922562
 10
26.787438
 20
8.919437
 10
25.790563
 20
8.919437
 10
25.790563
 20
7.922562
  0
LWPOLYLINE
  8
0
 62
7
 90
5
 70
1
 10
2.540000
 20
8.157438
 10
2.041562
 20
8.157438
 10
2.041562
 20
7.160563
 10
3.038438
 20
7.160563
 10
3.038438
 20
8.157438
  0
LWPOLYLINE
  8
0
 62
7
 90
5
 70
1
 10
2.540000
 20
9.857437
 10
2.041562
 20
9.857437
 10
2.041562
 20
8.860563
 10
3.038438
 20
8.860563
 10
3.038438
 20
9.857437
  0
LWPOLYLINE
  8
0
 62
7
 90
5
 70
1
 10
12.348437
 20
15.494000
 10
12.348437
 20
15.992437
 10
11.351563
 20
15.992437
 10
11.351563
 20
14.995563
 10
12.348437
 20
14.995563
  0
LWPOLYLINE
  8
0
 62
7
 90
5
 70
1
 10
14.048438
 20
15.494000
 10
14.048438
 20
15.992437
 10
13.051563
 20
15.992437
 10
13.051563
 20
14.995563
 10
14.048438
 20
14.995563
  0
LWPOLYLINE
  8
0
 62
7
 90
5
 70
1
 10
22.733000
 20
14.575563
 10
23.231438
 20
14.575563
 10
23.231438
 20
15.572437
 10
22.234562
 20
15.572437
 10
22.234562
 20
14.575563
  0
LWPOLYLINE
  8
0
 62
7
 90
5
 70
1
 10
22.733000
 20
12.875563
 10
23.231438
 20
12.875563
 10
23.231438
 20
13.872438
 10
22.234562
 20
13.872438
 10
22.234562
 20
12.875563
  0
LWPOLYLINE
  8
0
 62
7
 90
5
 70
1
 10
20.574000
 20
14.575563
 10
21.072438
 20
14.575563
 10
21.072438
 20
15.572437
 10
20.075563
 20
15.572437
 10
20.075563
 20
14.575563
  0
LWPOLYLINE
  8
0
 62
7
 90
5
 70
1
 10
20.574000
 20
12.875563
 10
21.072438
 20
12.875563
 10
21.072438
 20
13.872438
 10
20.075563
 20
13.872438
 10
20.075563
 20
12.875563
  0
LWPOLYLINE
  8
0
 62
7
 90
5
 70
1
 10
27.813000
 20
13.872438
 10
27.314562
 20
13.872438
 10
27.314562
 20
12.875563
 10
28.311438
 20
12.875563
 10
28.311438
 20
13.872438
  0
LWPOLYLINE
  8
0
 62
7
 90
5
 70
1
 10
27.813000
 20
15.572437
 10
27.314562
 20
15.572437
 10
27.314562
 20
14.575563
 10
28.311438
 20
14.575563
 10
28.311438
 20
15.572437
  0
LWPOLYLINE
  8
0
 62
7
 90
5
 70
1
 10
27.904000
 20
6.016563
 10
28.252437
 20
6.016563
 10
28.252437
 20
6.713438
 10
27.555563
 20
6.713438
 10
27.555563
 20
6.016563
  0
LWPOLYLINE
  8
0
 62
7
 90
5
 70
1
 10
27.904000
 20
4.716563
 10
28.252437
 20
4.716563
 10
28.252437
 20
5.413438
 10
27.555563
 20
5.413438
 10
27.555563
 20
4.716563
  0
LWPOLYLINE
  8
0
 62
7
 90
5
 70
1
 10
29.754000
 20
5.366562
 10
30.102438
 20
5.366562
 10
30.102438
 20
6.063438
 10
29.405563
 20
6.063438
 10
29.405563
 20
5.366562
  0
LWPOLYLINE
  8
0
 62
7
 90
5
 70
1
 10
27.904000
 20
2.841563
 10
28.252437
 20
2.841563
 10
28.252437
 20
3.538437
 10
27.555563
 20
3.538437
 10
27.555563
 20
2.841563
  0
LWPOLYLINE
  8
0
 62
7
 90
5
 70
1
 10
27.904000
 20
1.541562
 10
28.252437
 20
1.541562
 10
28.252437
 20
2.238437
 10
27.555563
 20
2.238437
 10
27.555563
 20
1.541562
  0
LWPOLYLINE
  8
0
 62
7
 90
5
 70
1
 10
29.754000
 20
2.191562
 10
30.102438
 20
2.191562
 10
30.102438
 20
2.888438
 10
29.405563
 20
2.888438
 10
29.405563
 20
2.191562
  0
LWPOLYLINE
  8
0
 62
7
 90
5
 70
1
 10
30.182437
 20
13.097000
 10
30.182437
 20
13.545438
 10
29.385562
 20
13.545438
 10
29.385562
 20
12.648562
 10
30.182437
 20
12.648562
  0
LWPOLYLINE
  8
0
 62
7
 90
5
 70
1
 10
32.082437
 20
13.097000
 10
32.082437
 20
13.545438
 10
31.285563
 20
13.545438
 10
31.285563
 20
12.648562
 10
32.082437
 20
12.648562
  0
LWPOLYLINE
  8
0
 62
7
 90
5
 70
1
 10
31.132438
 20
15.197000
 10
31.132438
 20
15.645437
 10
30.335563
 20
15.645437
 10
30.335563
 20
14.748562
 10
31.132438
 20
14.748562
  0
LWPOLYLINE
  8
0
 62
7
 90
5
 70
1
 10
26.289000
 20
5.363437
 10
25.790563
 20
5.363437
 10
25.790563
 20
4.366563
 10
26.787438
 20
4.366563
 10
26.787438
 20
5.363437
  0
LWPOLYLINE
  8
0
 62
7
 90
5
 70
1
 10
26.289000
 20
7.063438
 10
25.790563
 20
7.063438
 10
25.790563
 20
6.066563
 10
26.787438
 20
6.066563
 10
26.787438
 20
7.063438
  0
LWPOLYLINE
  8
0
 62
7
 90
5
 70
1
 10
26.289000
 20
2.188438
 10
25.790563
 20
2.188438
 10
25.790563
 20
1.191562
 10
26.787438
 20
1.191562
 10
26.787438
 20
2.188438
  0
LWPOLYLINE
  8
0
 62
7
 90
5
 70
1
 10
26.289000
 20
3.888438
 10
25.790563
 20
3.888438
 10
25.790563
 20
2.891563
 10
26.787438
 20
2.891563
 10
26.787438
 20
3.888438
  0
LWPOLYLINE
  8
0
 62
7
 90
5
 70
1
 10
5.842000
 20
3.780562
 10
6.340437
 20
3.780562
 10
6.340437
 20
4.777437
 10
5.343562
 20
4.777437
 10
5.343562
 20
3.780562
  0
LWPOLYLINE
  8
0
 62
7
 90
5
 70
1
 10
5.842000
 20
2.080563
 10
6.340437
 20
2.080563
 10
6.340437
 20
3.077438
 10
5.343562
 20
3.077438
 10
5.343562
 20
2.080563
  0
LWPOLYLINE
  8
0
 62
7
 90
5
 70
1
 10
31.242000
 20
6.066563
 10
31.740438
 20
6.066563
 10
31.740438
 20
7.063438
 10
30.743562
 20
7.063438
 10
30.743562
 20
6.066563
  0
LWPOLYLINE
  8
0
 62
7
 90
5
 70
1
 10
31.242000
 20
4.366563
 10
31.740438
 20
4.366563
 10
31.740438
 20
5.363437
 10
30.743562
 20
5.363437
 10
30.743562
 20
4.366563
  0
LWPOLYLINE
  8
0
 62
7
 90
5
 70
1
 10
31.242000
 20
2.188438
 10
30.743562
 20
2.188438
 10
30.743562
 20
1.191562
 10
31.740438
 20
1.191562
 10
31.740438
 20
2.188438
  0
LWPOLYLINE
  8
0
 62
7
 90
5
 70
1
 10
31.242000
 20
3.888438
 10
30.743562
 20
3.888438
 10
30.743562
 20
2.891563
 10
31.740438
 20
2.891563
 10
31.740438
 20
3.888438
  0
LWPOLYLINE
  8
0
 62
7
 90
5
 70
1
 10
15.875000
 20
13.872438
 10
15.376563
 20
13.872438
 10
15.376563
 20
12.875563
 10
16.373438
 20
12.875563
 10
16.373438
 20
13.872438
  0
LWPOLYLINE
  8
0
 62
7
 90
5
 70
1
 10
15.875000
 20
15.572437
 10
15.376563
 20
15.572437
 10
15.376563
 20
14.575563
 10
16.373438
 20
14.575563
 10
16.373438
 20
15.572437
  0
LWPOLYLINE
  8
0
 62
7
 90
5
 70
1
 10
18.034000
 20
14.575563
 10
18.532438
 20
14.575563
 10
18.532438
 20
15.572437
 10
17.535562
 20
15.572437
 10
17.535562
 20
14.575563
  0
LWPOLYLINE
  8
0
 62
7
 90
5
 70
1
 10
18.034000
 20
12.875563
 10
18.532438
 20
12.875563
 10
18.532438
 20
13.872438
 10
17.535562
 20
13.872438
 10
17.535562
 20
12.875563
  0
LWPOLYLINE
  8
0
 62
7
 90
5
 70
1
 10
9.368563
 20
10.287000
 10
9.368563
 20
9.788563
 10
10.365438
 20
9.788563
 10
10.365438
 20
10.785438
 10
9.368563
 20
10.785438
  0
LWPOLYLINE
  8
0
 62
7
 90
5
 70
1
 10
7.668563
 20
10.287000
 10
7.668563
 20
9.788563
 10
8.665437
 20
9.788563
 10
8.665437
 20
10.785438
 10
7.668563
 20
10.785438
  0
LWPOLYLINE
  8
0
 62
7
 90
5
 70
1
 10
6.193563
 20
12.446000
 10
6.193563
 20
11.947563
 10
7.190437
 20
11.947563
 10
7.190437
 20
12.944437
 10
6.193563
 20
12.944437
  0
LWPOLYLINE
  8
0
 62
7
 90
5
 70
1
 10
4.493563
 20
12.446000
 10
4.493563
 20
11.947563
 10
5.490437
 20
11.947563
 10
5.490437
 20
12.944437
 10
4.493563
 20
12.944437
  0
LWPOLYLINE
  8
0
 62
7
 90
5
 70
1
 10
9.368563
 20
12.446000
 10
9.368563
 20
11.947563
 10
10.365438
 20
11.947563
 10
10.365438
 20
12.944437
 10
9.368563
 20
12.944437
  0
LWPOLYLINE
  8
0
 62
7
 90
5
 70
1
 10
7.668563
 20
12.446000
 10
7.668563
 20
11.947563
 10
8.665437
 20
11.947563
 10
8.665437
 20
12.944437
 10
7.668563
 20
12.944437
  0
LWPOLYLINE
  8
0
 62
7
 90
5
 70
1
 10
5.431563
 20
6.096000
 10
5.431563
 20
5.597563
 10
6.428437
 20
5.597563
 10
6.428437
 20
6.594437
 10
5.431563
 20
6.594437
  0
LWPOLYLINE
  8
0
 62
7
 90
5
 70
1
 10
3.731563
 20
6.096000
 10
3.731563
 20
5.597563
 10
4.728438
 20
5.597563
 10
4.728438
 20
6.594437
 10
3.731563
 20
6.594437
  0
LWPOLYLINE
  8
0
 62
7
 90
5
 70
1
 10
16.861562
 20
2.286000
 10
16.861562
 20
1.787562
 10
17.858438
 20
1.787562
 10
17.858438
 20
2.784438
 10
16.861562
 20
2.784438
  0
LWPOLYLINE
  8
0
 62
7
 90
5
 70
1
 10
15.161563
 20
2.286000
 10
15.161563
 20
1.787562
 10
16.158438
 20
1.787562
 10
16.158438
 20
2.784438
 10
15.161563
 20
2.784438
  0
LWPOLYLINE
  8
0
 62
7
 90
5
 70
1
 10
14.050000
 20
8.721438
 10
13.551563
 20
8.721438
 10
13.551563
 20
8.174563
 10
14.548438
 20
8.174563
 10
14.548438
 20
8.721438
  0
LWPOLYLINE
  8
0
 62
7
 90
5
 70
1
 10
14.050000
 20
9.671437
 10
13.551563
 20
9.671437
 10
13.551563
 20
9.124562
 10
14.548438
 20
9.124562
 10
14.548438
 20
9.671437
  0
LWPOLYLINE
  8
0
 62
7
 90
5
 70
1
 10
14.050000
 20
10.621438
 10
13.551563
 20
10.621438
 10
13.551563
 20
10.074563
 10
14.548438
 20
10.074563
 10
14.548438
 20
10.621438
  0
LWPOLYLINE
  8
0
 62
7
 90
5
 70
1
 10
11.350000
 20
10.621438
 10
10.851563
 20
10.621438
 10
10.851563
 20
10.074563
 10
11.848437
 20
10.074563
 10
11.848437
 20
10.621438
  0
LWPOLYLINE
  8
0
 62
7
 90
5
 70
1
 10
11.350000
 20
8.721438
 10
10.851563
 20
8.721438
 10
10.851563
 20
8.174563
 10
11.848437
 20
8.174563
 10
11.848437
 20
8.721438
  0
LWPOLYLINE
  8
0
 62
7
 90
5
 70
1
 10
14.050000
 20
12.150438
 10
13.551563
 20
12.150438
 10
13.551563
 20
11.603563
 10
14.548438
 20
11.603563
 10
14.548438
 20
12.150438
  0
LWPOLYLINE
  8
0
 62
7
 90
5
 70
1
 10
14.050000
 20
13.100437
 10
13.551563
 20
13.100437
 10
13.551563
 20
12.553562
 10
14.548438
 20
12.553562
 10
14.548438
 20
13.100437
  0
LWPOLYLINE
  8
0
 62
7
 90
5
 70
1
 10
14.050000
 20
14.050437
 10
13.551563
 20
14.050437
 10
13.551563
 20
13.503562
 10
14.548438
 20
13.503562
 10
14.548438
 20
14.050437
  0
LWPOLYLINE
  8
0
 62
7
 90
5
 70
1
 10
11.350000
 20
14.050437
 10
10.851563
 20
14.050437
 10
10.851563
 20
13.503562
 10
11.848437
 20
13.503562
 10
11.848437
 20
14.050437
  0
LWPOLYLINE
  8
0
 62
7
 90
5
 70
1
 10
11.350000
 20
12.150438
 10
10.851563
 20
12.150438
 10
10.851563
 20
11.603563
 10
11.848437
 20
11.603563
 10
11.848437
 20
12.150438
  0
LWPOLYLINE
  8
0
 62
7
 90
5
 70
1
 10
6.811000
 20
8.721438
 10
6.312563
 20
8.721438
 10
6.312563
 20
8.174563
 10
7.309437
 20
8.174563
 10
7.309437
 20
8.721438
  0
LWPOLYLINE
  8
0
 62
7
 90
5
 70
1
 10
6.811000
 20
9.671437
 10
6.312563
 20
9.671437
 10
6.312563
 20
9.124562
 10
7.309437
 20
9.124562
 10
7.309437
 20
9.671437
  0
LWPOLYLINE
  8
0
 62
7
 90
5
 70
1
 10
6.811000
 20
10.621438
 10
6.312563
 20
10.621438
 10
6.312563
 20
10.074563
 10
7.309437
 20
10.074563
 10
7.309437
 20
10.621438
  0
LWPOLYLINE
  8
0
 62
7
 90
5
 70
1
 10
4.111000
 20
10.621438
 10
3.612562
 20
10.621438
 10
3.612562
 20
10.074563
 10
4.609437
 20
10.074563
 10
4.609437
 20
10.621438
  0
LWPOLYLINE
  8
0
 62
7
 90
5
 70
1
 10
4.111000
 20
8.721438
 10
3.612562
 20
8.721438
 10
3.612562
 20
8.174563
 10
4.609437
 20
8.174563
 10
4.609437
 20
8.721438
  0
LWPOLYLINE
  8
0
 62
7
 90
5
 70
1
 10
19.897437
 20
3.095000
 10
19.897437
 20
3.593438
 10
19.350562
 20
3.593438
 10
19.350562
 20
2.596563
 10
19.897437
 20
2.596563
  0
LWPOLYLINE
  8
0
 62
7
 90
5
 70
1
 10
20.847438
 20
3.095000
 10
20.847438
 20
3.593438
 10
20.300563
 20
3.593438
 10
20.300563
 20
2.596563
 10
20.847438
 20
2.596563
  0
LWPOLYLINE
  8
0
 62
7
 90
5
 70
1
 10
21.797438
 20
3.095000
 10
21.797438
 20
3.593438
 10
21.250563
 20
3.593438
 10
21.250563
 20
2.596563
 10
21.797438
 20
2.596563
  0
LWPOLYLINE
  8
0
 62
7
 90
5
 70
1
 10
21.797438
 20
5.795000
 10
21.797438
 20
6.293437
 10
21.250563
 20
6.293437
 10
21.250563
 20
5.296563
 10
21.797438
 20
5.296563
  0
LWPOLYLINE
  8
0
 62
7
 90
5
 70
1
 10
19.897437
 20
5.795000
 10
19.897437
 20
6.293437
 10
19.350562
 20
6.293437
 10
19.350562
 20
5.296563
 10
19.897437
 20
5.296563
  0
LWPOLYLINE
  8
0
 62
7
 90
5
 70
1
 10
27.971437
 20
8.321000
 10
27.971437
 20
8.719437
 10
27.624562
 20
8.719437
 10
27.624562
 20
7.922562
 10
27.971437
 20
7.922562
  0
LWPOLYLINE
  8
0
 62
7
 90
5
 70
1
 10
28.621437
 20
8.321000
 10
28.621437
 20
8.719437
 10
28.274563
 20
8.719437
 10
28.274563
 20
7.922562
 10
28.621437
 20
7.922562
  0
LWPOLYLINE
  8
0
 62
7
 90
5
 70
1
 10
29.271437
 20
8.321000
 10
29.271437
 20
8.719437
 10
28.924563
 20
8.719437
 10
28.924563
 20
7.922562
 10
29.271437
 20
7.922562
  0
LWPOLYLINE
  8
0
 62
7
 90
5
 70
1
 10
29.271437
 20
10.221000
 10
29.271437
 20
10.619438
 10
28.924563
 20
10.619438
 10
28.924563
 20
9.822563
 10
29.271437
 20
9.822563
  0
LWPOLYLINE
  8
0
 62
7
 90
5
 70
1
 10
27.971437
 20
10.221000
 10
27.971437
 20
10.619438
 10
27.624562
 20
10.619438
 10
27.624562
 20
9.822563
 10
27.971437
 20
9.822563
  0
LWPOLYLINE
  8
0
 62
7
 90
5
 70
1
 10
9.741563
 20
7.153000
 10
9.741563
 20
6.429562
 10
10.038438
 20
6.429562
 10
10.038438
 20
7.876437
 10
9.741563
 20
7.876437
  0
LWPOLYLINE
  8
0
 62
7
 90
5
 70
1
 10
9.241563
 20
7.153000
 10
9.241563
 20
6.429562
 10
9.538438
 20
6.429562
 10
9.538438
 20
7.876437
 10
9.241563
 20
7.876437
  0
LWPOLYLINE
  8
0
 62
7
 90
5
 70
1
 10
8.741563
 20
7.153000
 10
8.741563
 20
6.429562
 10
9.038438
 20
6.429562
 10
9.038438
 20
7.876437
 10
8.741563
 20
7.876437
  0
LWPOLYLINE
  8
0
 62
7
 90
5
 70
1
 10
8.241563
 20
7.153000
 10
8.241563
 20
6.429562
 10
8.538438
 20
6.429562
 10
8.538438
 20
7.876437
 10
8.241563
 20
7.876437
  0
LWPOLYLINE
  8
0
 62
7
 90
5
 70
1
 10
7.741562
 20
7.153000
 10
7.741562
 20
6.429562
 10
8.038438
 20
6.429562
 10
8.038438
 20
7.876437
 10
7.741562
 20
7.876437
  0
LWPOLYLINE
  8
0
 62
7
 90
5
 70
1
 10
7.741562
 20
2.753000
 10
7.741562
 20
2.029562
 10
8.038438
 20
2.029562
 10
8.038438
 20
3.476438
 10
7.741562
 20
3.476438
  0
LWPOLYLINE
  8
0
 62
7
 90
5
 70
1
 10
8.241563
 20
2.753000
 10
8.241563
 20
2.029562
 10
8.538438
 20
2.029562
 10
8.538438
 20
3.476438
 10
8.241563
 20
3.476438
  0
LWPOLYLINE
  8
0
 62
7
 90
5
 70
1
 10
8.741563
 20
2.753000
 10
8.741563
 20
2.029562
 10
9.038438
 20
2.029562
 10
9.038438
 20
3.476438
 10
8.741563
 20
3.476438
  0
LWPOLYLINE
  8
0
 62
7
 90
5
 70
1
 10
9.241563
 20
2.753000
 10
9.241563
 20
2.029562
 10
9.538438
 20
2.029562
 10
9.538438
 20
3.476438
 10
9.241563
 20
3.476438
  0
LWPOLYLINE
  8
0
 62
7
 90
5
 70
1
 10
9.741563
 20
2.753000
 10
9.741563
 20
2.029562
 10
10.038438
 20
2.029562
 10
10.038438
 20
3.476438
 10
9.741563
 20
3.476438
  0
LWPOLYLINE
  8
0
 62
7
 90
5
 70
1
 10
25.949562
 20
14.889000
 10
25.949562
 20
14.290563
 10
26.496437
 20
14.290563
 10
26.496437
 20
15.487437
 10
25.949562
 20
15.487437
  0
LWPOLYLINE
  8
0
 62
7
 90
5
 70
1
 10
24.999562
 20
14.889000
 10
24.999562
 20
14.290563
 10
25.546437
 20
14.290563
 10
25.546437
 20
15.487437
 10
24.999562
 20
15.487437
  0
LWPOLYLINE
  8
0
 62
7
 90
5
 70
1
 10
24.049563
 20
14.889000
 10
24.049563
 20
14.290563
 10
24.596438
 20
14.290563
 10
24.596438
 20
15.487437
 10
24.049563
 20
15.487437
  0
LWPOLYLINE
  8
0
 62
7
 90
5
 70
1
 10
24.049563
 20
12.289000
 10
24.049563
 20
11.690563
 10
24.596438
 20
11.690563
 10
24.596438
 20
12.887437
 10
24.049563
 20
12.887437
  0
LWPOLYLINE
  8
0
 62
7
 90
5
 70
1
 10
24.999562
 20
12.289000
 10
24.999562
 20
11.690563
 10
25.546437
 20
11.690563
 10
25.546437
 20
12.887437
 10
24.999562
 20
12.887437
  0
LWPOLYLINE
  8
0
 62
7
 90
5
 70
1
 10
25.949562
 20
12.289000
 10
25.949562
 20
11.690563
 10
26.496437
 20
11.690563
 10
26.496437
 20
12.887437
 10
25.949562
 20
12.887437
  0
ENDSEC
  0
EOF
