  0
SECTION
  2
BLOCKS
  0
ENDSEC
  0
SECTION
  2
ENTITIES
  0
LINE
  8
0
 10
12.3486
 20
15.9922
 11
11.3516
 21
15.9922
  0
LINE
  8
0
 10
11.3516
 20
15.9922
 11
11.3516
 21
14.9951
  0
LINE
  8
0
 10
11.3516
 20
14.9951
 11
12.3486
 21
14.9951
  0
LINE
  8
0
 10
12.3486
 20
14.9951
 11
12.3486
 21
15.9922
  0
LINE
  8
0
 10
14.0488
 20
15.9922
 11
13.0518
 21
15.9922
  0
LINE
  8
0
 10
13.0518
 20
15.9922
 11
13.0518
 21
14.9951
  0
LINE
  8
0
 10
13.0518
 20
14.9951
 11
14.0488
 21
14.9951
  0
LINE
  8
0
 10
14.0488
 20
14.9951
 11
14.0488
 21
15.9922
  0
LINE
  8
0
 10
31.1328
 20
15.6455
 11
30.3359
 21
15.6455
  0
LINE
  8
0
 10
30.3359
 20
15.6455
 11
30.3359
 21
14.749
  0
LINE
  8
0
 10
30.3359
 20
14.749
 11
31.1328
 21
14.749
  0
LINE
  8
0
 10
31.1328
 20
14.749
 11
31.1328
 21
15.6455
  0
LINE
  8
0
 10
28.3115
 20
15.5723
 11
27.3145
 21
15.5723
  0
LINE
  8
0
 10
27.3145
 20
15.5723
 11
27.3145
 21
14.5752
  0
LINE
  8
0
 10
27.3145
 20
14.5752
 11
28.3115
 21
14.5752
  0
LINE
  8
0
 10
28.3115
 20
14.5752
 11
28.3115
 21
15.5723
  0
LINE
  8
0
 10
18.5322
 20
15.5723
 11
17.5352
 21
15.5723
  0
LINE
  8
0
 10
17.5352
 20
15.5723
 11
17.5352
 21
14.5752
  0
LINE
  8
0
 10
17.5352
 20
14.5752
 11
18.5322
 21
14.5752
  0
LINE
  8
0
 10
18.5322
 20
14.5752
 11
18.5322
 21
15.5723
  0
LINE
  8
0
 10
23.2314
 20
15.5723
 11
22.2344
 21
15.5723
  0
LINE
  8
0
 10
22.2344
 20
15.5723
 11
22.2344
 21
14.5752
  0
LINE
  8
0
 10
22.2344
 20
14.5752
 11
23.2314
 21
14.5752
  0
LINE
  8
0
 10
23.2314
 20
14.5752
 11
23.2314
 21
15.5723
  0
LINE
  8
0
 10
21.0723
 20
15.5723
 11
20.0752
 21
15.5723
  0
LINE
  8
0
 10
20.0752
 20
15.5723
 11
20.0752
 21
14.5752
  0
LINE
  8
0
 10
20.0752
 20
14.5752
 11
21.0723
 21
14.5752
  0
LINE
  8
0
 10
21.0723
 20
14.5752
 11
21.0723
 21
15.5723
  0
LINE
  8
0
 10
16.373
 20
15.5723
 11
15.377
 21
15.5723
  0
LINE
  8
0
 10
15.377
 20
15.5723
 11
15.377
 21
14.5752
  0
LINE
  8
0
 10
15.377
 20
14.5752
 11
16.373
 21
14.5752
  0
LINE
  8
0
 10
16.373
 20
14.5752
 11
16.373
 21
15.5723
  0
LINE
  8
0
 10
26.4961
 20
15.4873
 11
25.9492
 21
15.4873
  0
LINE
  8
0
 10
25.9492
 20
15.4873
 11
25.9492
 21
14.291
  0
LINE
  8
0
 10
25.9492
 20
14.291
 11
26.4961
 21
14.291
  0
LINE
  8
0
 10
26.4961
 20
14.291
 11
26.4961
 21
15.4873
  0
LINE
  8
0
 10
25.5469
 20
15.4873
 11
25
 21
15.4873
  0
LINE
  8
0
 10
25
 20
15.4873
 11
25
 21
14.291
  0
LINE
  8
0
 10
25
 20
14.291
 11
25.5469
 21
14.291
  0
LINE
  8
0
 10
25.5469
 20
14.291
 11
25.5469
 21
15.4873
  0
LINE
  8
0
 10
24.5967
 20
15.4873
 11
24.0498
 21
15.4873
  0
LINE
  8
0
 10
24.0498
 20
15.4873
 11
24.0498
 21
14.291
  0
LINE
  8
0
 10
24.0498
 20
14.291
 11
24.5967
 21
14.291
  0
LINE
  8
0
 10
24.5967
 20
14.291
 11
24.5967
 21
15.4873
  0
LINE
  8
0
 10
11.8486
 20
14.0508
 11
10.8516
 21
14.0508
  0
LINE
  8
0
 10
10.8516
 20
14.0508
 11
10.8516
 21
13.5039
  0
LINE
  8
0
 10
10.8516
 20
13.5039
 11
11.8486
 21
13.5039
  0
LINE
  8
0
 10
11.8486
 20
13.5039
 11
11.8486
 21
14.0508
  0
LINE
  8
0
 10
14.5488
 20
14.0508
 11
13.5518
 21
14.0508
  0
LINE
  8
0
 10
13.5518
 20
14.0508
 11
13.5518
 21
13.5039
  0
LINE
  8
0
 10
13.5518
 20
13.5039
 11
14.5488
 21
13.5039
  0
LINE
  8
0
 10
14.5488
 20
13.5039
 11
14.5488
 21
14.0508
  0
LINE
  8
0
 10
21.0723
 20
13.8721
 11
20.0752
 21
13.8721
  0
LINE
  8
0
 10
20.0752
 20
13.8721
 11
20.0752
 21
12.876
  0
LINE
  8
0
 10
20.0752
 20
12.876
 11
21.0723
 21
12.876
  0
LINE
  8
0
 10
21.0723
 20
12.876
 11
21.0723
 21
13.8721
  0
LINE
  8
0
 10
16.373
 20
13.8721
 11
15.377
 21
13.8721
  0
LINE
  8
0
 10
15.377
 20
13.8721
 11
15.377
 21
12.876
  0
LINE
  8
0
 10
15.377
 20
12.876
 11
16.373
 21
12.876
  0
LINE
  8
0
 10
16.373
 20
12.876
 11
16.373
 21
13.8721
  0
LINE
  8
0
 10
23.2314
 20
13.8721
 11
22.2344
 21
13.8721
  0
LINE
  8
0
 10
22.2344
 20
13.8721
 11
22.2344
 21
12.876
  0
LINE
  8
0
 10
22.2344
 20
12.876
 11
23.2314
 21
12.876
  0
LINE
  8
0
 10
23.2314
 20
12.876
 11
23.2314
 21
13.8721
  0
LINE
  8
0
 10
28.3115
 20
13.8721
 11
27.3145
 21
13.8721
  0
LINE
  8
0
 10
27.3145
 20
13.8721
 11
27.3145
 21
12.876
  0
LINE
  8
0
 10
27.3145
 20
12.876
 11
28.3115
 21
12.876
  0
LINE
  8
0
 10
28.3115
 20
12.876
 11
28.3115
 21
13.8721
  0
LINE
  8
0
 10
18.5322
 20
13.8721
 11
17.5352
 21
13.8721
  0
LINE
  8
0
 10
17.5352
 20
13.8721
 11
17.5352
 21
12.876
  0
LINE
  8
0
 10
17.5352
 20
12.876
 11
18.5322
 21
12.876
  0
LINE
  8
0
 10
18.5322
 20
12.876
 11
18.5322
 21
13.8721
  0
LINE
  8
0
 10
30.1826
 20
13.5459
 11
29.3857
 21
13.5459
  0
LINE
  8
0
 10
29.3857
 20
13.5459
 11
29.3857
 21
12.6484
  0
LINE
  8
0
 10
29.3857
 20
12.6484
 11
30.1826
 21
12.6484
  0
LINE
  8
0
 10
30.1826
 20
12.6484
 11
30.1826
 21
13.5459
  0
LINE
  8
0
 10
32.082
 20
13.5459
 11
31.2852
 21
13.5459
  0
LINE
  8
0
 10
31.2852
 20
13.5459
 11
31.2852
 21
12.6484
  0
LINE
  8
0
 10
31.2852
 20
12.6484
 11
32.082
 21
12.6484
  0
LINE
  8
0
 10
32.082
 20
12.6484
 11
32.082
 21
13.5459
  0
LINE
  8
0
 10
14.5488
 20
13.1006
 11
13.5518
 21
13.1006
  0
LINE
  8
0
 10
13.5518
 20
13.1006
 11
13.5518
 21
12.5537
  0
LINE
  8
0
 10
13.5518
 20
12.5537
 11
14.5488
 21
12.5537
  0
LINE
  8
0
 10
14.5488
 20
12.5537
 11
14.5488
 21
13.1006
  0
LINE
  8
0
 10
7.19043
 20
12.9443
 11
6.19336
 21
12.9443
  0
LINE
  8
0
 10
6.19336
 20
12.9443
 11
6.19336
 21
11.9473
  0
LINE
  8
0
 10
6.19336
 20
11.9473
 11
7.19043
 21
11.9473
  0
LINE
  8
0
 10
7.19043
 20
11.9473
 11
7.19043
 21
12.9443
  0
LINE
  8
0
 10
5.49023
 20
12.9443
 11
4.49316
 21
12.9443
  0
LINE
  8
0
 10
4.49316
 20
12.9443
 11
4.49316
 21
11.9473
  0
LINE
  8
0
 10
4.49316
 20
11.9473
 11
5.49023
 21
11.9473
  0
LINE
  8
0
 10
5.49023
 20
11.9473
 11
5.49023
 21
12.9443
  0
LINE
  8
0
 10
10.3652
 20
12.9443
 11
9.36816
 21
12.9443
  0
LINE
  8
0
 10
9.36816
 20
12.9443
 11
9.36816
 21
11.9473
  0
LINE
  8
0
 10
9.36816
 20
11.9473
 11
10.3652
 21
11.9473
  0
LINE
  8
0
 10
10.3652
 20
11.9473
 11
10.3652
 21
12.9443
  0
LINE
  8
0
 10
8.66504
 20
12.9443
 11
7.66895
 21
12.9443
  0
LINE
  8
0
 10
7.66895
 20
12.9443
 11
7.66895
 21
11.9473
  0
LINE
  8
0
 10
7.66895
 20
11.9473
 11
8.66504
 21
11.9473
  0
LINE
  8
0
 10
8.66504
 20
11.9473
 11
8.66504
 21
12.9443
  0
LINE
  8
0
 10
26.4961
 20
12.8877
 11
25.9492
 21
12.8877
  0
LINE
  8
0
 10
25.9492
 20
12.8877
 11
25.9492
 21
11.6904
  0
LINE
  8
0
 10
25.9492
 20
11.6904
 11
26.4961
 21
11.6904
  0
LINE
  8
0
 10
26.4961
 20
11.6904
 11
26.4961
 21
12.8877
  0
LINE
  8
0
 10
24.5967
 20
12.8877
 11
24.0498
 21
12.8877
  0
LINE
  8
0
 10
24.0498
 20
12.8877
 11
24.0498
 21
11.6904
  0
LINE
  8
0
 10
24.0498
 20
11.6904
 11
24.5967
 21
11.6904
  0
LINE
  8
0
 10
24.5967
 20
11.6904
 11
24.5967
 21
12.8877
  0
LINE
  8
0
 10
25.5469
 20
12.8877
 11
25
 21
12.8877
  0
LINE
  8
0
 10
25
 20
12.8877
 11
25
 21
11.6904
  0
LINE
  8
0
 10
25
 20
11.6904
 11
25.5469
 21
11.6904
  0
LINE
  8
0
 10
25.5469
 20
11.6904
 11
25.5469
 21
12.8877
  0
LINE
  8
0
 10
14.5488
 20
12.1504
 11
13.5518
 21
12.1504
  0
LINE
  8
0
 10
13.5518
 20
12.1504
 11
13.5518
 21
11.6035
  0
LINE
  8
0
 10
13.5518
 20
11.6035
 11
14.5488
 21
11.6035
  0
LINE
  8
0
 10
14.5488
 20
11.6035
 11
14.5488
 21
12.1504
  0
LINE
  8
0
 10
11.8486
 20
12.1504
 11
10.8516
 21
12.1504
  0
LINE
  8
0
 10
10.8516
 20
12.1504
 11
10.8516
 21
11.6035
  0
LINE
  8
0
 10
10.8516
 20
11.6035
 11
11.8486
 21
11.6035
  0
LINE
  8
0
 10
11.8486
 20
11.6035
 11
11.8486
 21
12.1504
  0
LINE
  8
0
 10
10.3652
 20
10.7852
 11
9.36816
 21
10.7852
  0
LINE
  8
0
 10
9.36816
 20
10.7852
 11
9.36816
 21
9.78809
  0
LINE
  8
0
 10
9.36816
 20
9.78809
 11
10.3652
 21
9.78809
  0
LINE
  8
0
 10
10.3652
 20
9.78809
 11
10.3652
 21
10.7852
  0
LINE
  8
0
 10
8.66504
 20
10.7852
 11
7.66895
 21
10.7852
  0
LINE
  8
0
 10
7.66895
 20
10.7852
 11
7.66895
 21
9.78809
  0
LINE
  8
0
 10
7.66895
 20
9.78809
 11
8.66504
 21
9.78809
  0
LINE
  8
0
 10
8.66504
 20
9.78809
 11
8.66504
 21
10.7852
  0
LINE
  8
0
 10
7.30957
 20
10.6211
 11
6.3125
 21
10.6211
  0
LINE
  8
0
 10
6.3125
 20
10.6211
 11
6.3125
 21
10.0742
  0
LINE
  8
0
 10
6.3125
 20
10.0742
 11
7.30957
 21
10.0742
  0
LINE
  8
0
 10
7.30957
 20
10.0742
 11
7.30957
 21
10.6211
  0
LINE
  8
0
 10
4.60938
 20
10.6211
 11
3.6123
 21
10.6211
  0
LINE
  8
0
 10
3.6123
 20
10.6211
 11
3.6123
 21
10.0742
  0
LINE
  8
0
 10
3.6123
 20
10.0742
 11
4.60938
 21
10.0742
  0
LINE
  8
0
 10
4.60938
 20
10.0742
 11
4.60938
 21
10.6211
  0
LINE
  8
0
 10
11.8486
 20
10.6211
 11
10.8516
 21
10.6211
  0
LINE
  8
0
 10
10.8516
 20
10.6211
 11
10.8516
 21
10.0742
  0
LINE
  8
0
 10
10.8516
 20
10.0742
 11
11.8486
 21
10.0742
  0
LINE
  8
0
 10
11.8486
 20
10.0742
 11
11.8486
 21
10.6211
  0
LINE
  8
0
 10
14.5488
 20
10.6211
 11
13.5518
 21
10.6211
  0
LINE
  8
0
 10
13.5518
 20
10.6211
 11
13.5518
 21
10.0742
  0
LINE
  8
0
 10
13.5518
 20
10.0742
 11
14.5488
 21
10.0742
  0
LINE
  8
0
 10
14.5488
 20
10.0742
 11
14.5488
 21
10.6211
  0
LINE
  8
0
 10
31.1055
 20
10.6191
 11
30.1084
 21
10.6191
  0
LINE
  8
0
 10
30.1084
 20
10.6191
 11
30.1084
 21
9.62305
  0
LINE
  8
0
 10
30.1084
 20
9.62305
 11
31.1055
 21
9.62305
  0
LINE
  8
0
 10
31.1055
 20
9.62305
 11
31.1055
 21
10.6191
  0
LINE
  8
0
 10
26.7871
 20
10.6191
 11
25.791
 21
10.6191
  0
LINE
  8
0
 10
25.791
 20
10.6191
 11
25.791
 21
9.62305
  0
LINE
  8
0
 10
25.791
 20
9.62305
 11
26.7871
 21
9.62305
  0
LINE
  8
0
 10
26.7871
 20
9.62305
 11
26.7871
 21
10.6191
  0
LINE
  8
0
 10
29.2715
 20
10.6191
 11
28.9248
 21
10.6191
  0
LINE
  8
0
 10
28.9248
 20
10.6191
 11
28.9248
 21
9.82227
  0
LINE
  8
0
 10
28.9248
 20
9.82227
 11
29.2715
 21
9.82227
  0
LINE
  8
0
 10
29.2715
 20
9.82227
 11
29.2715
 21
10.6191
  0
LINE
  8
0
 10
27.9717
 20
10.6191
 11
27.625
 21
10.6191
  0
LINE
  8
0
 10
27.625
 20
10.6191
 11
27.625
 21
9.82227
  0
LINE
  8
0
 10
27.625
 20
9.82227
 11
27.9717
 21
9.82227
  0
LINE
  8
0
 10
27.9717
 20
9.82227
 11
27.9717
 21
10.6191
  0
LINE
  8
0
 10
3.03809
 20
9.85742
 11
2.04199
 21
9.85742
  0
LINE
  8
0
 10
2.04199
 20
9.85742
 11
2.04199
 21
8.86035
  0
LINE
  8
0
 10
2.04199
 20
8.86035
 11
3.03809
 21
8.86035
  0
LINE
  8
0
 10
3.03809
 20
8.86035
 11
3.03809
 21
9.85742
  0
LINE
  8
0
 10
7.30957
 20
9.67188
 11
6.3125
 21
9.67188
  0
LINE
  8
0
 10
6.3125
 20
9.67188
 11
6.3125
 21
9.125
  0
LINE
  8
0
 10
6.3125
 20
9.125
 11
7.30957
 21
9.125
  0
LINE
  8
0
 10
7.30957
 20
9.125
 11
7.30957
 21
9.67188
  0
LINE
  8
0
 10
14.5488
 20
9.67188
 11
13.5518
 21
9.67188
  0
LINE
  8
0
 10
13.5518
 20
9.67188
 11
13.5518
 21
9.125
  0
LINE
  8
0
 10
13.5518
 20
9.125
 11
14.5488
 21
9.125
  0
LINE
  8
0
 10
14.5488
 20
9.125
 11
14.5488
 21
9.67188
  0
LINE
  8
0
 10
31.1055
 20
8.91992
 11
30.1084
 21
8.91992
  0
LINE
  8
0
 10
30.1084
 20
8.91992
 11
30.1084
 21
7.92285
  0
LINE
  8
0
 10
30.1084
 20
7.92285
 11
31.1055
 21
7.92285
  0
LINE
  8
0
 10
31.1055
 20
7.92285
 11
31.1055
 21
8.91992
  0
LINE
  8
0
 10
26.7871
 20
8.91992
 11
25.791
 21
8.91992
  0
LINE
  8
0
 10
25.791
 20
8.91992
 11
25.791
 21
7.92285
  0
LINE
  8
0
 10
25.791
 20
7.92285
 11
26.7871
 21
7.92285
  0
LINE
  8
0
 10
26.7871
 20
7.92285
 11
26.7871
 21
8.91992
  0
LINE
  8
0
 10
14.5488
 20
8.72168
 11
13.5518
 21
8.72168
  0
LINE
  8
0
 10
13.5518
 20
8.72168
 11
13.5518
 21
8.1748
  0
LINE
  8
0
 10
13.5518
 20
8.1748
 11
14.5488
 21
8.1748
  0
LINE
  8
0
 10
14.5488
 20
8.1748
 11
14.5488
 21
8.72168
  0
LINE
  8
0
 10
4.60938
 20
8.72168
 11
3.6123
 21
8.72168
  0
LINE
  8
0
 10
3.6123
 20
8.72168
 11
3.6123
 21
8.1748
  0
LINE
  8
0
 10
3.6123
 20
8.1748
 11
4.60938
 21
8.1748
  0
LINE
  8
0
 10
4.60938
 20
8.1748
 11
4.60938
 21
8.72168
  0
LINE
  8
0
 10
11.8486
 20
8.72168
 11
10.8516
 21
8.72168
  0
LINE
  8
0
 10
10.8516
 20
8.72168
 11
10.8516
 21
8.1748
  0
LINE
  8
0
 10
10.8516
 20
8.1748
 11
11.8486
 21
8.1748
  0
LINE
  8
0
 10
11.8486
 20
8.1748
 11
11.8486
 21
8.72168
  0
LINE
  8
0
 10
7.30957
 20
8.72168
 11
6.3125
 21
8.72168
  0
LINE
  8
0
 10
6.3125
 20
8.72168
 11
6.3125
 21
8.1748
  0
LINE
  8
0
 10
6.3125
 20
8.1748
 11
7.30957
 21
8.1748
  0
LINE
  8
0
 10
7.30957
 20
8.1748
 11
7.30957
 21
8.72168
  0
LINE
  8
0
 10
27.9717
 20
8.71973
 11
27.625
 21
8.71973
  0
LINE
  8
0
 10
27.625
 20
8.71973
 11
27.625
 21
7.92285
  0
LINE
  8
0
 10
27.625
 20
7.92285
 11
27.9717
 21
7.92285
  0
LINE
  8
0
 10
27.9717
 20
7.92285
 11
27.9717
 21
8.71973
  0
LINE
  8
0
 10
28.6211
 20
8.71973
 11
28.2744
 21
8.71973
  0
LINE
  8
0
 10
28.2744
 20
8.71973
 11
28.2744
 21
7.92285
  0
LINE
  8
0
 10
28.2744
 20
7.92285
 11
28.6211
 21
7.92285
  0
LINE
  8
0
 10
28.6211
 20
7.92285
 11
28.6211
 21
8.71973
  0
LINE
  8
0
 10
29.2715
 20
8.71973
 11
28.9248
 21
8.71973
  0
LINE
  8
0
 10
28.9248
 20
8.71973
 11
28.9248
 21
7.92285
  0
LINE
  8
0
 10
28.9248
 20
7.92285
 11
29.2715
 21
7.92285
  0
LINE
  8
0
 10
29.2715
 20
7.92285
 11
29.2715
 21
8.71973
  0
LINE
  8
0
 10
3.03809
 20
8.15723
 11
2.04199
 21
8.15723
  0
LINE
  8
0
 10
2.04199
 20
8.15723
 11
2.04199
 21
7.16016
  0
LINE
  8
0
 10
2.04199
 20
7.16016
 11
3.03809
 21
7.16016
  0
LINE
  8
0
 10
3.03809
 20
7.16016
 11
3.03809
 21
8.15723
  0
LINE
  8
0
 10
10.0381
 20
7.87598
 11
9.74121
 21
7.87598
  0
LINE
  8
0
 10
9.74121
 20
7.87598
 11
9.74121
 21
6.42969
  0
LINE
  8
0
 10
9.74121
 20
6.42969
 11
10.0381
 21
6.42969
  0
LINE
  8
0
 10
10.0381
 20
6.42969
 11
10.0381
 21
7.87598
  0
LINE
  8
0
 10
9.53809
 20
7.87598
 11
9.24121
 21
7.87598
  0
LINE
  8
0
 10
9.24121
 20
7.87598
 11
9.24121
 21
6.42969
  0
LINE
  8
0
 10
9.24121
 20
6.42969
 11
9.53809
 21
6.42969
  0
LINE
  8
0
 10
9.53809
 20
6.42969
 11
9.53809
 21
7.87598
  0
LINE
  8
0
 10
8.03809
 20
7.87598
 11
7.74121
 21
7.87598
  0
LINE
  8
0
 10
7.74121
 20
7.87598
 11
7.74121
 21
6.42969
  0
LINE
  8
0
 10
7.74121
 20
6.42969
 11
8.03809
 21
6.42969
  0
LINE
  8
0
 10
8.03809
 20
6.42969
 11
8.03809
 21
7.87598
  0
LINE
  8
0
 10
8.53809
 20
7.87598
 11
8.24121
 21
7.87598
  0
LINE
  8
0
 10
8.24121
 20
7.87598
 11
8.24121
 21
6.42969
  0
LINE
  8
0
 10
8.24121
 20
6.42969
 11
8.53809
 21
6.42969
  0
LINE
  8
0
 10
8.53809
 20
6.42969
 11
8.53809
 21
7.87598
  0
LINE
  8
0
 10
9.03809
 20
7.87598
 11
8.74121
 21
7.87598
  0
LINE
  8
0
 10
8.74121
 20
7.87598
 11
8.74121
 21
6.42969
  0
LINE
  8
0
 10
8.74121
 20
6.42969
 11
9.03809
 21
6.42969
  0
LINE
  8
0
 10
9.03809
 20
6.42969
 11
9.03809
 21
7.87598
  0
LINE
  8
0
 10
14.0488
 20
7.22949
 11
13.0518
 21
7.22949
  0
LINE
  8
0
 10
13.0518
 20
7.22949
 11
13.0518
 21
6.23242
  0
LINE
  8
0
 10
13.0518
 20
6.23242
 11
14.0488
 21
6.23242
  0
LINE
  8
0
 10
14.0488
 20
6.23242
 11
14.0488
 21
7.22949
  0
LINE
  8
0
 10
12.3486
 20
7.22949
 11
11.3516
 21
7.22949
  0
LINE
  8
0
 10
11.3516
 20
7.22949
 11
11.3516
 21
6.23242
  0
LINE
  8
0
 10
11.3516
 20
6.23242
 11
12.3486
 21
6.23242
  0
LINE
  8
0
 10
12.3486
 20
6.23242
 11
12.3486
 21
7.22949
  0
LINE
  8
0
 10
31.7402
 20
7.06348
 11
30.7432
 21
7.06348
  0
LINE
  8
0
 10
30.7432
 20
7.06348
 11
30.7432
 21
6.06641
  0
LINE
  8
0
 10
30.7432
 20
6.06641
 11
31.7402
 21
6.06641
  0
LINE
  8
0
 10
31.7402
 20
6.06641
 11
31.7402
 21
7.06348
  0
LINE
  8
0
 10
26.7871
 20
7.06348
 11
25.791
 21
7.06348
  0
LINE
  8
0
 10
25.791
 20
7.06348
 11
25.791
 21
6.06641
  0
LINE
  8
0
 10
25.791
 20
6.06641
 11
26.7871
 21
6.06641
  0
LINE
  8
0
 10
26.7871
 20
6.06641
 11
26.7871
 21
7.06348
  0
LINE
  8
0
 10
28.252
 20
6.71387
 11
27.5557
 21
6.71387
  0
LINE
  8
0
 10
27.5557
 20
6.71387
 11
27.5557
 21
6.0166
  0
LINE
  8
0
 10
27.5557
 20
6.0166
 11
28.252
 21
6.0166
  0
LINE
  8
0
 10
28.252
 20
6.0166
 11
28.252
 21
6.71387
  0
LINE
  8
0
 10
4.72852
 20
6.59473
 11
3.73145
 21
6.59473
  0
LINE
  8
0
 10
3.73145
 20
6.59473
 11
3.73145
 21
5.59766
  0
LINE
  8
0
 10
3.73145
 20
5.59766
 11
4.72852
 21
5.59766
  0
LINE
  8
0
 10
4.72852
 20
5.59766
 11
4.72852
 21
6.59473
  0
LINE
  8
0
 10
6.42871
 20
6.59473
 11
5.43164
 21
6.59473
  0
LINE
  8
0
 10
5.43164
 20
6.59473
 11
5.43164
 21
5.59766
  0
LINE
  8
0
 10
5.43164
 20
5.59766
 11
6.42871
 21
5.59766
  0
LINE
  8
0
 10
6.42871
 20
5.59766
 11
6.42871
 21
6.59473
  0
LINE
  8
0
 10
18.0244
 20
6.30176
 11
17.0273
 21
6.30176
  0
LINE
  8
0
 10
17.0273
 20
6.30176
 11
17.0273
 21
5.30469
  0
LINE
  8
0
 10
17.0273
 20
5.30469
 11
18.0244
 21
5.30469
  0
LINE
  8
0
 10
18.0244
 20
5.30469
 11
18.0244
 21
6.30176
  0
LINE
  8
0
 10
15.8652
 20
6.30176
 11
14.8682
 21
6.30176
  0
LINE
  8
0
 10
14.8682
 20
6.30176
 11
14.8682
 21
5.30469
  0
LINE
  8
0
 10
14.8682
 20
5.30469
 11
15.8652
 21
5.30469
  0
LINE
  8
0
 10
15.8652
 20
5.30469
 11
15.8652
 21
6.30176
  0
LINE
  8
0
 10
21.7979
 20
6.29297
 11
21.251
 21
6.29297
  0
LINE
  8
0
 10
21.251
 20
6.29297
 11
21.251
 21
5.29688
  0
LINE
  8
0
 10
21.251
 20
5.29688
 11
21.7979
 21
5.29688
  0
LINE
  8
0
 10
21.7979
 20
5.29688
 11
21.7979
 21
6.29297
  0
LINE
  8
0
 10
19.8975
 20
6.29297
 11
19.3506
 21
6.29297
  0
LINE
  8
0
 10
19.3506
 20
6.29297
 11
19.3506
 21
5.29688
  0
LINE
  8
0
 10
19.3506
 20
5.29688
 11
19.8975
 21
5.29688
  0
LINE
  8
0
 10
19.8975
 20
5.29688
 11
19.8975
 21
6.29297
  0
LINE
  8
0
 10
30.1025
 20
6.06348
 11
29.4053
 21
6.06348
  0
LINE
  8
0
 10
29.4053
 20
6.06348
 11
29.4053
 21
5.36621
  0
LINE
  8
0
 10
29.4053
 20
5.36621
 11
30.1025
 21
5.36621
  0
LINE
  8
0
 10
30.1025
 20
5.36621
 11
30.1025
 21
6.06348
  0
LINE
  8
0
 10
23.8662
 20
5.79297
 11
22.8691
 21
5.79297
  0
LINE
  8
0
 10
22.8691
 20
5.79297
 11
22.8691
 21
4.79688
  0
LINE
  8
0
 10
22.8691
 20
4.79688
 11
23.8662
 21
4.79688
  0
LINE
  8
0
 10
23.8662
 20
4.79688
 11
23.8662
 21
5.79297
  0
LINE
  8
0
 10
28.252
 20
5.41309
 11
27.5557
 21
5.41309
  0
LINE
  8
0
 10
27.5557
 20
5.41309
 11
27.5557
 21
4.7168
  0
LINE
  8
0
 10
27.5557
 20
4.7168
 11
28.252
 21
4.7168
  0
LINE
  8
0
 10
28.252
 20
4.7168
 11
28.252
 21
5.41309
  0
LINE
  8
0
 10
26.7871
 20
5.36328
 11
25.791
 21
5.36328
  0
LINE
  8
0
 10
25.791
 20
5.36328
 11
25.791
 21
4.36621
  0
LINE
  8
0
 10
25.791
 20
4.36621
 11
26.7871
 21
4.36621
  0
LINE
  8
0
 10
26.7871
 20
4.36621
 11
26.7871
 21
5.36328
  0
LINE
  8
0
 10
31.7402
 20
5.36328
 11
30.7432
 21
5.36328
  0
LINE
  8
0
 10
30.7432
 20
5.36328
 11
30.7432
 21
4.36621
  0
LINE
  8
0
 10
30.7432
 20
4.36621
 11
31.7402
 21
4.36621
  0
LINE
  8
0
 10
31.7402
 20
4.36621
 11
31.7402
 21
5.36328
  0
LINE
  8
0
 10
12.6904
 20
5.28516
 11
11.6934
 21
5.28516
  0
LINE
  8
0
 10
11.6934
 20
5.28516
 11
11.6934
 21
4.28809
  0
LINE
  8
0
 10
11.6934
 20
4.28809
 11
12.6904
 21
4.28809
  0
LINE
  8
0
 10
12.6904
 20
4.28809
 11
12.6904
 21
5.28516
  0
LINE
  8
0
 10
6.34082
 20
4.77734
 11
5.34375
 21
4.77734
  0
LINE
  8
0
 10
5.34375
 20
4.77734
 11
5.34375
 21
3.78027
  0
LINE
  8
0
 10
5.34375
 20
3.78027
 11
6.34082
 21
3.78027
  0
LINE
  8
0
 10
6.34082
 20
3.78027
 11
6.34082
 21
4.77734
  0
LINE
  8
0
 10
15.8652
 20
4.60156
 11
14.8682
 21
4.60156
  0
LINE
  8
0
 10
14.8682
 20
4.60156
 11
14.8682
 21
3.60449
  0
LINE
  8
0
 10
14.8682
 20
3.60449
 11
15.8652
 21
3.60449
  0
LINE
  8
0
 10
15.8652
 20
3.60449
 11
15.8652
 21
4.60156
  0
LINE
  8
0
 10
18.0244
 20
4.60156
 11
17.0273
 21
4.60156
  0
LINE
  8
0
 10
17.0273
 20
4.60156
 11
17.0273
 21
3.60449
  0
LINE
  8
0
 10
17.0273
 20
3.60449
 11
18.0244
 21
3.60449
  0
LINE
  8
0
 10
18.0244
 20
3.60449
 11
18.0244
 21
4.60156
  0
LINE
  8
0
 10
23.8662
 20
4.09375
 11
22.8691
 21
4.09375
  0
LINE
  8
0
 10
22.8691
 20
4.09375
 11
22.8691
 21
3.09668
  0
LINE
  8
0
 10
22.8691
 20
3.09668
 11
23.8662
 21
3.09668
  0
LINE
  8
0
 10
23.8662
 20
3.09668
 11
23.8662
 21
4.09375
  0
LINE
  8
0
 10
31.7402
 20
3.88867
 11
30.7432
 21
3.88867
  0
LINE
  8
0
 10
30.7432
 20
3.88867
 11
30.7432
 21
2.8916
  0
LINE
  8
0
 10
30.7432
 20
2.8916
 11
31.7402
 21
2.8916
  0
LINE
  8
0
 10
31.7402
 20
2.8916
 11
31.7402
 21
3.88867
  0
LINE
  8
0
 10
26.7871
 20
3.88867
 11
25.791
 21
3.88867
  0
LINE
  8
0
 10
25.791
 20
3.88867
 11
25.791
 21
2.8916
  0
LINE
  8
0
 10
25.791
 20
2.8916
 11
26.7871
 21
2.8916
  0
LINE
  8
0
 10
26.7871
 20
2.8916
 11
26.7871
 21
3.88867
  0
LINE
  8
0
 10
20.8477
 20
3.59375
 11
20.3008
 21
3.59375
  0
LINE
  8
0
 10
20.3008
 20
3.59375
 11
20.3008
 21
2.59668
  0
LINE
  8
0
 10
20.3008
 20
2.59668
 11
20.8477
 21
2.59668
  0
LINE
  8
0
 10
20.8477
 20
2.59668
 11
20.8477
 21
3.59375
  0
LINE
  8
0
 10
19.8975
 20
3.59375
 11
19.3506
 21
3.59375
  0
LINE
  8
0
 10
19.3506
 20
3.59375
 11
19.3506
 21
2.59668
  0
LINE
  8
0
 10
19.3506
 20
2.59668
 11
19.8975
 21
2.59668
  0
LINE
  8
0
 10
19.8975
 20
2.59668
 11
19.8975
 21
3.59375
  0
LINE
  8
0
 10
21.7979
 20
3.59375
 11
21.251
 21
3.59375
  0
LINE
  8
0
 10
21.251
 20
3.59375
 11
21.251
 21
2.59668
  0
LINE
  8
0
 10
21.251
 20
2.59668
 11
21.7979
 21
2.59668
  0
LINE
  8
0
 10
21.7979
 20
2.59668
 11
21.7979
 21
3.59375
  0
LINE
  8
0
 10
12.6904
 20
3.58496
 11
11.6934
 21
3.58496
  0
LINE
  8
0
 10
11.6934
 20
3.58496
 11
11.6934
 21
2.58887
  0
LINE
  8
0
 10
11.6934
 20
2.58887
 11
12.6904
 21
2.58887
  0
LINE
  8
0
 10
12.6904
 20
2.58887
 11
12.6904
 21
3.58496
  0
LINE
  8
0
 10
28.252
 20
3.53809
 11
27.5557
 21
3.53809
  0
LINE
  8
0
 10
27.5557
 20
3.53809
 11
27.5557
 21
2.8418
  0
LINE
  8
0
 10
27.5557
 20
2.8418
 11
28.252
 21
2.8418
  0
LINE
  8
0
 10
28.252
 20
2.8418
 11
28.252
 21
3.53809
  0
LINE
  8
0
 10
10.0381
 20
3.47656
 11
9.74121
 21
3.47656
  0
LINE
  8
0
 10
9.74121
 20
3.47656
 11
9.74121
 21
2.0293
  0
LINE
  8
0
 10
9.74121
 20
2.0293
 11
10.0381
 21
2.0293
  0
LINE
  8
0
 10
10.0381
 20
2.0293
 11
10.0381
 21
3.47656
  0
LINE
  8
0
 10
9.53809
 20
3.47656
 11
9.24121
 21
3.47656
  0
LINE
  8
0
 10
9.24121
 20
3.47656
 11
9.24121
 21
2.0293
  0
LINE
  8
0
 10
9.24121
 20
2.0293
 11
9.53809
 21
2.0293
  0
LINE
  8
0
 10
9.53809
 20
2.0293
 11
9.53809
 21
3.47656
  0
LINE
  8
0
 10
9.03809
 20
3.47656
 11
8.74121
 21
3.47656
  0
LINE
  8
0
 10
8.74121
 20
3.47656
 11
8.74121
 21
2.0293
  0
LINE
  8
0
 10
8.74121
 20
2.0293
 11
9.03809
 21
2.0293
  0
LINE
  8
0
 10
9.03809
 20
2.0293
 11
9.03809
 21
3.47656
  0
LINE
  8
0
 10
8.53809
 20
3.47656
 11
8.24121
 21
3.47656
  0
LINE
  8
0
 10
8.24121
 20
3.47656
 11
8.24121
 21
2.0293
  0
LINE
  8
0
 10
8.24121
 20
2.0293
 11
8.53809
 21
2.0293
  0
LINE
  8
0
 10
8.53809
 20
2.0293
 11
8.53809
 21
3.47656
  0
LINE
  8
0
 10
8.03809
 20
3.47656
 11
7.74121
 21
3.47656
  0
LINE
  8
0
 10
7.74121
 20
3.47656
 11
7.74121
 21
2.0293
  0
LINE
  8
0
 10
7.74121
 20
2.0293
 11
8.03809
 21
2.0293
  0
LINE
  8
0
 10
8.03809
 20
2.0293
 11
8.03809
 21
3.47656
  0
LINE
  8
0
 10
6.34082
 20
3.07715
 11
5.34375
 21
3.07715
  0
LINE
  8
0
 10
5.34375
 20
3.07715
 11
5.34375
 21
2.08008
  0
LINE
  8
0
 10
5.34375
 20
2.08008
 11
6.34082
 21
2.08008
  0
LINE
  8
0
 10
6.34082
 20
2.08008
 11
6.34082
 21
3.07715
  0
LINE
  8
0
 10
30.1025
 20
2.88867
 11
29.4053
 21
2.88867
  0
LINE
  8
0
 10
29.4053
 20
2.88867
 11
29.4053
 21
2.19141
  0
LINE
  8
0
 10
29.4053
 20
2.19141
 11
30.1025
 21
2.19141
  0
LINE
  8
0
 10
30.1025
 20
2.19141
 11
30.1025
 21
2.88867
  0
LINE
  8
0
 10
16.1582
 20
2.78418
 11
15.1611
 21
2.78418
  0
LINE
  8
0
 10
15.1611
 20
2.78418
 11
15.1611
 21
1.78711
  0
LINE
  8
0
 10
15.1611
 20
1.78711
 11
16.1582
 21
1.78711
  0
LINE
  8
0
 10
16.1582
 20
1.78711
 11
16.1582
 21
2.78418
  0
LINE
  8
0
 10
17.8584
 20
2.78418
 11
16.8613
 21
2.78418
  0
LINE
  8
0
 10
16.8613
 20
2.78418
 11
16.8613
 21
1.78711
  0
LINE
  8
0
 10
16.8613
 20
1.78711
 11
17.8584
 21
1.78711
  0
LINE
  8
0
 10
17.8584
 20
1.78711
 11
17.8584
 21
2.78418
  0
LINE
  8
0
 10
28.252
 20
2.23828
 11
27.5557
 21
2.23828
  0
LINE
  8
0
 10
27.5557
 20
2.23828
 11
27.5557
 21
1.54199
  0
LINE
  8
0
 10
27.5557
 20
1.54199
 11
28.252
 21
1.54199
  0
LINE
  8
0
 10
28.252
 20
1.54199
 11
28.252
 21
2.23828
  0
LINE
  8
0
 10
26.7871
 20
2.18848
 11
25.791
 21
2.18848
  0
LINE
  8
0
 10
25.791
 20
2.18848
 11
25.791
 21
1.19141
  0
LINE
  8
0
 10
25.791
 20
1.19141
 11
26.7871
 21
1.19141
  0
LINE
  8
0
 10
26.7871
 20
1.19141
 11
26.7871
 21
2.18848
  0
LINE
  8
0
 10
31.7402
 20
2.18848
 11
30.7432
 21
2.18848
  0
LINE
  8
0
 10
30.7432
 20
2.18848
 11
30.7432
 21
1.19141
  0
LINE
  8
0
 10
30.7432
 20
1.19141
 11
31.7402
 21
1.19141
  0
LINE
  8
0
 10
31.7402
 20
1.19141
 11
31.7402
 21
2.18848
  0
LINE
  8
0
 10
20.2227
 20
1.89551
 11
19.2256
 21
1.89551
  0
LINE
  8
0
 10
19.2256
 20
1.89551
 11
19.2256
 21
0.898438
  0
LINE
  8
0
 10
19.2256
 20
0.898438
 11
20.2227
 21
0.898438
  0
LINE
  8
0
 10
20.2227
 20
0.898438
 11
20.2227
 21
1.89551
  0
LINE
  8
0
 10
21.9229
 20
1.89551
 11
20.9258
 21
1.89551
  0
LINE
  8
0
 10
20.9258
 20
1.89551
 11
20.9258
 21
0.898438
  0
LINE
  8
0
 10
20.9258
 20
0.898438
 11
21.9229
 21
0.898438
  0
LINE
  8
0
 10
21.9229
 20
0.898438
 11
21.9229
 21
1.89551
  0
ENDSEC
  0
SECTION
  2
OBJECTS
  0
DICTIONARY
  0
ENDSEC
  0
EOF
